<svg viewBox="0 0 256 256" xmlns="http://www.w3.org/2000/svg"><g><g><path d="m150.24 139.068-13.543-52.453c-1.022-3.959 1.359-7.997 5.318-9.02s7.997 1.359 9.02 5.318l13.543 52.453c1.022 3.959-1.359 7.997-5.318 9.02s-7.998-1.359-9.02-5.318z" fill="#63bce7"></path></g><g><path d="m108.854 104.334c3.762-3.782 10.13-2.73 12.476 2.061l11.129 22.725c1.623 3.305 1.126 7.246-1.249 10.051l-26.662 31.487c-3.303 3.9-9.143 4.385-13.044 1.082-1.204-1.02-2.083-2.281-2.625-3.653-1.214-3.071-.741-6.693 1.543-9.39l22.752-26.87-6.22-19.678c-.87-2.755-.138-5.766 1.9-7.815z" fill="#cecece"></path></g><g><path d="m94.537 232.12c-14.296-14.223-14.356-37.425-.133-51.721s37.425-14.356 51.721-.133 14.356 37.425.133 51.721-37.424 14.356-51.721.133zm44.136-44.364c-10.166-10.114-26.665-10.072-36.779.095s-10.072 26.665.095 36.779c10.166 10.114 26.665 10.072 36.779-.095 10.114-10.166 10.072-26.665-.095-36.779z" fill="#cecece"></path></g><circle cx="38.286" cy="124.568" fill="#f8af23" r="16.482"></circle><g><path d="m41.601 112.943c1.26-1.267 2.679-2.277 4.188-3.048-6.209-3.177-14.006-2.161-19.188 3.048-6.42 6.453-6.393 16.889.06 23.31 5.186 5.16 12.942 6.146 19.121 2.989-1.483-.759-2.877-1.751-4.121-2.989-6.453-6.42-6.48-16.856-.06-23.31z" fill="#f87023"></path></g><circle cx="120.331" cy="206.193" fill="#f8af23" r="16.482"></circle><g><path d="m12.492 150.495c-14.296-14.223-14.356-37.425-.133-51.721s37.425-14.356 51.721-.133 14.356 37.425.133 51.721-37.425 14.356-51.721.133zm44.136-44.364c-10.166-10.114-26.665-10.072-36.779.095s-10.072 26.665.095 36.779c10.166 10.114 26.665 10.072 36.779-.095s10.071-26.664-.095-36.779z" fill="#cecece"></path></g><path d="m124.061 208.03 31.147-63.144c.232-.471.802-.665 1.273-.433l9.235 4.537c2.061 1.012 4.553.162 5.565-1.899 1.012-2.061.162-4.553-1.899-5.565l-14.65-7.197c-1.621-.796-3.581-.129-4.379 1.492l-9.46 19.206c-.056-.059-.109-.131-.173-.195l-36.814-36.625 3.651-7.293 6.872 6.837c1.539 1.532 4.034 1.774 5.705.387 1.917-1.591 2.01-4.441.287-6.156l-21.403-21.294c-1.539-1.532-4.034-1.774-5.705-.387-1.917 1.591-2.01 4.441-.287 6.156l8.312 8.269-5.146 10.327-59.501 4.738c-1.334.106-2.598.771-3.319 1.898-1.084 1.695-.805 3.848.56 5.206l40.004 39.799c.879.875 2.103 1.311 3.338 1.191l60.199-5.896-20.871 42.367c-.81 1.643-.434 3.561.796 4.785.312.311.679.576 1.096.782 2.06 1.014 4.552.167 5.567-1.893zm-77.857-80.655 45.71-3.64-16.238 32.962zm37.666 31.508 16.16-32.804 28.569 28.423z" fill="#f46275"></path><g><path d="m120.894 88.817 2.01 38.88c.17 3.282-1.414 6.408-4.16 8.213l-35.309 23.198c-2.587 1.7-5.713 1.934-8.399.905-1.749-.67-3.311-1.874-4.418-3.559-2.806-4.272-1.618-10.01 2.653-12.817l30.875-20.284-1.525-29.481c-.14-2.704.276-5.409 1.221-7.947l1.403-3.767z" fill="#cecece"></path></g><g><path d="m88.271 143.637 30.875-20.284-1.525-29.481c-.108-2.082.121-4.162.66-6.167l-13.035-5.546-1.403 3.767c-.945 2.538-1.361 5.242-1.221 7.947l1.525 29.481-30.875 20.284c-4.272 2.807-5.46 8.545-2.653 12.817 1.107 1.685 2.669 2.889 4.418 3.559 2.686 1.028 5.812.794 8.399-.905l2.811-1.846c-.216-.261-.437-.517-.627-.807-2.808-4.274-1.62-10.012 2.651-12.819z" fill="#afafaf"></path></g><path d="m152.055 62.309h10.853v16.461h-10.853z" fill="#f87023" transform="matrix(.531 .848 -.848 .531 133.661 -100.366)"></path><path d="m124.001 112.099-18.755-29.941 28.935-18.125c4.62-2.894 10.71-1.495 13.604 3.125l8.276 13.212c2.894 4.62 1.495 10.71-3.125 13.604z" fill="#63bce7"></path><g><path d="m146.613 65.642c-3.162-3.374-8.366-4.156-12.432-1.608l-28.935 18.125 18.755 29.941 10.773-6.748-14.528-23.193z" fill="#6377e7"></path></g><g><path d="m148.351 80.753 23.1 49.002c1.743 3.698.158 8.11-3.54 9.854s-8.11.158-9.854-3.54l-23.1-49.002c-1.743-3.698-.158-8.11 3.54-9.854s8.11-.159 9.854 3.54z" fill="#63bce7"></path></g><circle cx="169.952" cy="64.335" fill="#f8af23" r="14.23"></circle><path d="m174.864 54.298c.797-.801 1.67-1.473 2.59-2.044-5.502-3.422-12.825-2.745-17.59 2.044-5.543 5.572-5.52 14.582.052 20.124 4.771 4.746 12.057 5.398 17.535 1.993-.898-.559-1.753-1.215-2.535-1.993-5.572-5.542-5.595-14.552-.052-20.124z" fill="#f87023"></path><path d="m157.189 56.765.232.231c1.661 1.653 4.104 2.244 6.337 1.533l6.552-2.086 10.217 10.164c2.67 2.656 6.783 3.204 10.055 1.339 2.508-1.43 2.964-4.855.918-6.891l-13.176-13.109c-4.689-4.665-12.376-4.284-16.58.822l-4.668 5.669c-.571.689-.521 1.698.113 2.328z" fill="#707070"></path><path d="m162.232 242.748v-54.886l30.554-32.275v-154.019h61.483v241.18z" fill="#cecece"></path><g><path d="m239.27 1.568h15v241.18h-15z" fill="#e2e2e2"></path></g><g fill="#3f3679"><path d="m20.748 252.938h-19.18c-.829 0-1.5.671-1.5 1.5s.671 1.5 1.5 1.5h19.179c.829 0 1.5-.671 1.5-1.5s-.671-1.5-1.499-1.5z"></path><path d="m254.432 252.938h-19.179c-.829 0-1.5.671-1.5 1.5s.671 1.5 1.5 1.5h19.179c.829 0 1.5-.671 1.5-1.5s-.672-1.5-1.5-1.5z"></path><path d="m224.389 252.938h-192.778c-.829 0-1.5.671-1.5 1.5s.671 1.5 1.5 1.5h192.778c.829 0 1.5-.671 1.5-1.5s-.671-1.5-1.5-1.5z"></path><path d="m255.77 242.748v-241.18c0-.829-.671-1.5-1.5-1.5h-61.483c-.829 0-1.5.671-1.5 1.5v57.158l-11.907-11.844c-2.534-2.521-6.027-3.867-9.604-3.688-3.57.177-6.92 1.861-9.192 4.62l-4.668 5.669c-.961 1.166-.973 2.793-.098 3.97-1.071 2.201-1.588 4.576-1.574 6.942l-4.611 2.889-.575-.917c-3.329-5.315-10.362-6.931-15.677-3.601l-28.931 18.123-.002.009c-.268.169-.488.419-.607.739l-1.403 3.767c-.648 1.741-1.036 3.538-1.214 5.363l-1.147-1.141c-2.117-2.105-5.508-2.315-7.721-.478-1.23 1.021-1.977 2.518-2.048 4.107-.072 1.59.534 3.145 1.661 4.267l7.545 7.505-4.285 8.599-20.061 1.597c-1.681-6.677-5.129-12.77-10.029-17.644-14.882-14.805-39.036-14.745-53.843.138-7.162 7.199-11.091 16.77-11.065 26.95s4.005 19.731 11.203 26.893c7.339 7.301 17.103 11.033 26.904 11.033 7.77 0 15.56-2.353 22.185-7.126l12.356 12.292c1.201 1.194 2.861 1.786 4.542 1.62l9.983-.978c.029.079.051.161.082.239.646 1.635 1.701 3.104 3.05 4.247 2.017 1.708 4.485 2.542 6.941 2.542.17 0 .34-.019.51-.027-1.638 1.181-3.199 2.486-4.646 3.94-14.806 14.882-14.744 39.036.139 53.842 3.561 3.542 7.655 6.224 12.021 8.065h-103.933c-.829 0-1.5.671-1.5 1.5s.671 1.5 1.5 1.5h160.663 63.957 28.082c.828-.001 1.5-.672 1.5-1.501zm-95.039-54.886v53.386h-25.569c4.425-1.865 8.569-4.594 12.16-8.203 14.806-14.883 14.744-39.036-.139-53.843-1.581-1.573-3.307-2.999-5.125-4.265l14.254-28.896 8.744 4.295c1.355.666 2.891.764 4.321.277 1.43-.488 2.585-1.504 3.251-2.86 1.376-2.8.217-6.197-2.583-7.573l-.09-.044c1.454-1.042 2.561-2.494 3.179-4.213.804-2.238.688-4.656-.326-6.807l-16.838-35.719c3.509-3.729 4.107-9.44 1.36-13.825l-.343-.548 3.464-2.17c2.722 2.075 6.021 3.212 9.501 3.212h.042c4.202-.011 8.147-1.657 11.111-4.636 1.471-1.479 2.585-3.195 3.367-5.092.65.131 1.312.201 1.975.201 1.659 0 3.328-.418 4.84-1.271v85.723l-30.144 31.841c-.265.278-.412.647-.412 1.03zm-36.329-60.243-.667-12.902 7.378 15.064c1.356 2.762.945 6.067-1.047 8.421l-1.799 2.124-5.9-5.87c1.411-1.959 2.164-4.364 2.035-6.837zm7.954 12.522c2.763-3.265 3.332-7.85 1.451-11.68l-7.77-15.866 13.617-8.53 8.484 32.861-7.659 15.55-10.078-10.027zm18.001-6.617-5.862-22.706 10.353 21.963c-1.557-.541-3.24-.233-4.491.743zm-14.043-47.097c-1.388-2.944-.122-6.469 2.823-7.857.811-.382 1.666-.563 2.508-.563 2.216 0 4.344 1.253 5.35 3.386l23.099 49.002c.672 1.426.75 3.029.216 4.514-.533 1.484-1.612 2.671-3.039 3.344-1.425.672-3.028.75-4.513.216-1.484-.533-2.671-1.612-3.344-3.039zm21.902-27.011c1.819.964 3.968 1.187 5.996.542l5.684-1.81 9.571 9.522c.661.657 1.402 1.197 2.191 1.632-.63 1.491-1.519 2.842-2.682 4.011-2.398 2.411-5.591 3.743-8.992 3.752-.011 0-.022 0-.034 0-3.388 0-6.575-1.315-8.977-3.706-3.682-3.663-4.727-9.228-2.757-13.943zm.015-4.026 4.668-5.669c1.737-2.108 4.297-3.396 7.025-3.53 2.728-.14 5.403.892 7.339 2.818l13.176 13.108c.641.637.939 1.516.82 2.412s-.638 1.666-1.422 2.113c-2.677 1.525-6.071 1.073-8.254-1.099l-10.217-10.164c-.286-.284-.668-.437-1.058-.437-.152 0-.306.023-.455.071l-6.552 2.086c-1.706.544-3.554.097-4.825-1.167l-.232-.23c-.082-.086-.089-.22-.013-.312zm-3.625 12.317c.562 2.566 1.766 4.997 3.563 7.035l-2.776 1.739-4.169-6.655zm-19.633-2.4c3.913-2.45 9.091-1.261 11.542 2.652l8.271 13.205c1.802 2.877 1.649 6.53-.232 9.233l-4.847-10.283c-2.094-4.441-7.409-6.349-11.851-4.257-4.441 2.094-6.351 7.41-4.257 11.851l6.045 12.823-15.169 9.502-17.163-27.398zm-30.003 59.299c.445-.292.702-.799.674-1.331l-1.525-29.48c-.13-2.515.25-4.987 1.129-7.346l.341-.916 14.859 23.722.957 18.52c.142 2.738-1.193 5.375-3.486 6.882l-35.31 23.198c-2.08 1.366-4.71 1.649-7.039.758-1.522-.583-2.802-1.614-3.701-2.981-2.348-3.573-1.35-8.391 2.224-10.74zm20.313 28.714-4.457.437 2.239-2.644zm-8.743.856-22.162 2.171 5.029-5.939 13.822-9.081 7.702 7.663zm-26.875 2.633.883-.58-.456.539zm-40.091-28.198 3.208-.255c-.227.874-.534 1.721-.914 2.537zm6.323-.504 6.689-.533c-.451 3.678-1.72 7.187-3.719 10.282l-4.775-4.75c.851-1.569 1.455-3.243 1.805-4.999zm9.729-.774 7.623-.607c-.412 6.82-2.74 13.23-6.787 18.686l-5.43-5.402c2.561-3.77 4.137-8.118 4.594-12.677zm10.66-.849 13.116-1.044-4.229 8.583-12.727 8.361c-.293.192-.57.398-.838.613 2.797-5.039 4.389-10.643 4.678-16.513zm17.798-31.091c-.53-.527-.814-1.257-.781-2.005.034-.757.378-1.443.968-1.933 1.038-.861 2.658-.73 3.688.296l3.215 3.199.409 7.904zm-80.534 54.039c-13.71-13.64-13.767-35.89-.127-49.6s35.889-13.767 49.6-.127c4.392 4.37 7.512 9.804 9.105 15.76l-7.695.613c-1.338-4.134-3.652-7.93-6.746-11.009-10.753-10.698-28.204-10.652-38.9.1-10.697 10.752-10.652 28.203.1 38.9 5.304 5.276 12.343 7.995 19.428 7.994 5.037 0 10.092-1.393 14.567-4.199l5.485 5.457c-13.772 9.624-32.815 8.051-44.817-3.889zm19.324-21.474 10.684 10.629c-5.445 2.051-11.642.776-15.838-3.398-5.856-5.827-5.881-15.332-.055-21.188 2.823-2.837 6.581-4.406 10.583-4.416h.04c3.987 0 7.738 1.548 10.565 4.361.96.954 1.769 2.022 2.431 3.177l-14.712 1.172c-1.854.148-3.522 1.114-4.464 2.585-1.454 2.273-1.139 5.183.766 7.078zm21.648-11.092c-.886-1.869-2.07-3.571-3.553-5.046-3.394-3.376-7.896-5.234-12.681-5.234-.016 0-.032 0-.048 0-4.803.013-9.314 1.895-12.702 5.3-6.993 7.029-6.963 18.438.065 25.431 3.455 3.437 8.04 5.241 12.688 5.241 2.562 0 5.143-.556 7.566-1.682l4.833 4.809c-9.519 5.595-21.77 4.135-29.689-3.743-9.58-9.531-9.62-25.078-.089-34.657 9.53-9.58 25.078-9.62 34.657-.089 2.587 2.574 4.567 5.708 5.786 9.127zm22.605 49.526c-.792.074-1.569-.2-2.133-.761l-40.004-39.799c-.895-.89-1.041-2.262-.354-3.334.438-.685 1.251-1.138 2.175-1.212l59.501-4.738c.524-.042.989-.355 1.224-.826l4.271-8.572.798 15.422-12.485 8.202 3.141-6.376c.238-.484.198-1.059-.104-1.505s-.82-.699-1.36-.653l-45.71 3.64c-.584.046-1.087.429-1.289.979s-.065 1.167.35 1.58l22.483 22.368c-.12 2.214.428 4.481 1.736 6.472 1.246 1.897 3.022 3.327 5.135 4.136 1.243.476 2.548.71 3.848.71 2.076 0 4.138-.598 5.911-1.763l.015-.01 44.471-4.356c.578-.057 1.072-.442 1.267-.989s.057-1.158-.354-1.567l-13.865-13.795 3.777-2.481c.253-.166.483-.359.719-.544l19.391 19.295c.042.05.083.098.125.142.286.303.682.471 1.092.471.074 0 .148-.005.223-.017.486-.073.906-.379 1.123-.821l9.459-19.206c.431-.876 1.496-1.239 2.373-.809l2.658 1.305c.047.023.096.036.144.053 1.037 1.986 2.748 3.494 4.87 4.256.983.354 2.001.529 3.016.529.51 0 1.018-.057 1.522-.146l2.44 1.198c1.315.646 1.86 2.242 1.214 3.558-.313.637-.855 1.114-1.527 1.343-.672.228-1.393.182-2.03-.13l-9.235-4.537c-1.21-.596-2.682-.095-3.279 1.116l-31.148 63.145c-.313.637-.856 1.113-1.529 1.342-.672.228-1.393.181-2.029-.132-.262-.129-.499-.298-.702-.5-.809-.805-1.013-2.035-.508-3.059l20.871-42.368c.241-.489.198-1.069-.112-1.517s-.84-.691-1.379-.639zm39.213 43.813c.435.432.937.79 1.491 1.063.79.389 1.64.585 2.495.585.613 0 1.229-.101 1.826-.304 1.431-.486 2.586-1.5 3.254-2.855l6.129-12.424c2.426 2.732 3.77 6.2 3.779 9.885.01 4.002-1.539 7.768-4.361 10.605s-6.581 4.406-10.583 4.416c-.014 0-.026 0-.04 0-3.987 0-7.738-1.548-10.566-4.361-5.856-5.827-5.881-15.332-.055-21.188 3.092-3.108 7.357-4.681 11.676-4.377l-6.13 12.444c-1.073 2.179-.638 4.796 1.085 6.511zm6.457-21.82c-5.586-.771-11.216 1.107-15.214 5.125-6.993 7.029-6.963 18.438.065 25.431 3.394 3.376 7.896 5.234 12.682 5.234h.048c4.803-.013 9.314-1.895 12.702-5.3s5.247-7.926 5.234-12.729-1.895-9.314-5.3-12.702c-.019-.019-.039-.036-.059-.055l2.993-6.068c.575.477 1.137.971 1.667 1.497 4.633 4.609 7.194 10.757 7.211 17.311s-2.512 12.714-7.122 17.347c-4.609 4.633-10.757 7.194-17.31 7.211-.022 0-.043 0-.065 0-6.529 0-12.665-2.528-17.282-7.122-9.58-9.53-9.619-25.078-.089-34.657 5.971-6.002 14.606-8.462 22.829-6.593zm-30.322-17.789c-.816-.691-1.469-1.551-1.938-2.503l15.505-1.519-2.638 3.115c-2.764 3.264-7.668 3.669-10.929.907zm17.853-4.442 24.607-2.41-3.054 6.199c-8.445-2.674-17.476-2.265-25.509.881zm-14.732 64.902c-13.71-13.64-13.768-35.89-.128-49.599 9.106-9.154 22.736-12.517 35.072-8.789l-3.397 6.896c-9.43-2.398-19.44.323-26.311 7.228-10.697 10.752-10.652 28.203.1 38.9 5.184 5.157 12.07 7.995 19.398 7.995h.073c7.354-.019 14.255-2.894 19.429-8.095s8.013-12.116 7.995-19.471c-.019-7.355-2.894-14.255-8.095-19.43-.762-.758-1.581-1.461-2.424-2.124l3.408-6.909c1.539 1.102 3.003 2.327 4.352 3.67 13.71 13.64 13.767 35.89.127 49.6-6.814 6.85-15.779 10.291-24.754 10.319h-.042c-8.974.018-17.954-3.377-24.803-10.191zm157.174 10.192h-26.582-62.457v-52.789l29.321-30.972 31.124 18.415v34.449c0 .829.671 1.5 1.5 1.5s1.5-.671 1.5-1.5v-35.305c0-.53-.28-1.021-.736-1.291l-32.154-19.024v-88.944h11.446l10.522 10.125v12.101c0 .829.671 1.5 1.5 1.5s1.5-.671 1.5-1.5v-12.74c0-.408-.166-.798-.46-1.081l-10.499-10.102 8.616-12.485h18.319c.506 0 .979-.255 1.256-.68l6.058-9.271c.453-.693.258-1.623-.436-2.076-.692-.452-1.622-.257-2.076.436l-5.614 8.591h-18.295c-.493 0-.955.242-1.234.648l-9.34 13.535h-11.263v-59.72h58.483v238.18z"></path></g></g></svg>