<svg fill="none" viewBox="0 0 24 24" xmlns="http://www.w3.org/2000/svg" xmlns:xlink="http://www.w3.org/1999/xlink">
  <linearGradient id="paint0_linear_35_6576" gradientUnits="userSpaceOnUse" x1="12" x2="12" y1="2" y2="22"><stop offset="0" stop-color="#e2b0ff"/><stop offset="1" stop-color="#9f44d3"/></linearGradient><g clip-rule="evenodd" fill="url(#paint0_linear_35_6576)" fill-rule="evenodd"><path d="m6 4c-1.10457 0-2 .89543-2 2s.89543 2 2 2 2-.89543 2-2-.89543-2-2-2zm-4 2c0-2.20914 1.79086-4 4-4s4 1.79086 4 4-1.79086 4-4 4-4-1.79086-4-4z"/><path d="m18 4c-1.1046 0-2 .89543-2 2s.8954 2 2 2 2-.89543 2-2-.8954-2-2-2zm-4 2c0-2.20914 1.7909-4 4-4s4 1.79086 4 4-1.7909 4-4 4-4-1.79086-4-4z"/><path d="m12 16c-1.1046 0-2 .8954-2 2s.8954 2 2 2 2-.8954 2-2-.8954-2-2-2zm-4 2c0-2.2091 1.79086-4 4-4 2.2091 0 4 1.7909 4 4s-1.7909 4-4 4c-2.20914 0-4-1.7909-4-4z"/><path d="m5.9711 8.00084c.55182-.02269 1.01755.40625 1.04024.95807.04918 1.19569.2624 1.53429.44504 1.68159.24436.197.78368.3595 2.19562.3595h4.696c1.4119 0 1.9513-.1625 2.1956-.3595.1827-.1473.3959-.4859.4451-1.68159.0226-.55182.4884-.98076 1.0402-.95807.5518.0227.9808.48843.9581 1.04025-.0516 1.25501-.2701 2.41631-1.1881 3.15641-.8562.6903-2.0864.8025-3.4509.8025h-4.696c-1.36446 0-2.59466-.1122-3.45091-.8025-.91796-.7401-1.13645-1.9014-1.18806-3.15641-.02269-.55182.40625-1.01755.95807-1.04025z"/><path d="m12 11c.5523 0 1 .4477 1 1v3c0 .5523-.4477 1-1 1s-1-.4477-1-1v-3c0-.5523.4477-1 1-1z"/></g>
</svg>