<svg enable-background="new 0 0 512 512" viewBox="0 0 512 512" xmlns="http://www.w3.org/2000/svg"><g><g><path d="m484.54 315.71v.52c0 .78-.06 1.55-.13 2.33-.19 3.88-.52 7.69-1.1 11.44-.71 4.85-1.74 9.69-3.1 14.35-.06.45-.19.9-.32 1.36l-2.84 8.34-.45 1.29c-.84 2.2-1.75 4.33-2.78 6.46-2 4.52-4.39 8.98-7.05 13.25-.65.97-1.36 2-2 2.97l-6.53-4.91-42.33-31.6c-8.98-6.66-19.39-11.44-30.18-14.02-2.2-.52-4.33-.9-6.46-1.29l-22.62-3.88-85.96-14.87c-9.31-1.62-18.61-1.62-27.66-.06l-111.55 19.07c-3.62.65-7.24 1.49-10.86 2.59-7.37 2.33-14.28 5.56-20.62 9.76-.19.06-.32.19-.52.32l-1.16.84c-.78.52-1.55 1.03-2.26 1.62l-41.11 30.7-1.29.97-6.4 4.78c-.65-.97-1.36-2-2-2.97-2.65-4.27-5.04-8.73-7.05-13.25-1.03-2.13-1.94-4.27-2.78-6.46l-.45-1.29-2.84-8.34c-.13-.45-.26-.9-.32-1.36-1.36-4.65-2.39-9.5-3.1-14.35-.58-3.75-.9-7.56-1.1-11.44-.06-.78-.13-1.55-.13-2.33v-.52c.84-23.53 7.88-48.93 21.07-76.01 1.03-2.13 2.07-4.2 3.17-6.2 1.03-2 2.13-3.94 3.3-5.88 3.23-5.62 6.72-10.92 10.34-15.9.71-.97 1.42-1.94 2.13-2.84 6.72-8.92 14.02-16.8 21.72-23.85 1.1-1.03 2.2-2 3.3-2.97 12.28-10.79 25.46-19.52 38.91-26.56 1.1-.58 2.26-1.16 3.43-1.75 2.65-1.36 5.3-2.65 7.95-3.81 1.16-.58 2.33-1.1 3.56-1.62 2.2-.97 4.46-1.87 6.66-2.78 1.49-.58 2.97-1.16 4.39-1.74 11.5-4.33 22.75-7.63 33.35-10.15 3.94-.9 7.82-1.75 11.5-2.46 1.55-.32 3.04-.58 4.52-.84 4.39-.78 8.66-1.42 12.6-1.94 6.08-.84 11.5-1.36 16.29-1.75 1.62-.13 3.1-.19 4.52-.32h.06c.97-.06 1.87-.06 2.71-.13 4.39-.19 7.89-.26 10.15-.26h3.1c.19 0 3.3-.06 8.6.06 1.55 0 3.3.06 5.17.19 1.29.06 2.71.13 4.27.26 5.24.32 11.5.9 18.48 1.87.52.06.97.13 1.42.19 1.42.19 2.84.39 4.33.65 1.49.19 2.97.45 4.46.71 2.78.45 5.69 1.03 8.66 1.62.19 0 .45.06.65.13h.06c3.68.71 7.56 1.62 11.44 2.52 3.43.9 6.85 1.81 10.34 2.78 1.23.39 2.52.71 3.81 1.1 2.52.84 5.11 1.62 7.69 2.52 3.88 1.29 7.82 2.71 11.76 4.27 2.65 1.03 5.3 2.13 7.89 3.3 1.36.58 2.71 1.16 4.01 1.75 1.29.65 2.65 1.23 3.94 1.87 4.01 1.94 8.01 3.94 11.89 6.14 2.65 1.42 5.3 2.97 7.89 4.65 1.29.78 2.59 1.62 3.88 2.46 1.36.84 2.59 1.68 3.88 2.52 7.76 5.24 15.25 11.18 22.43 17.77 1.23 1.1 2.39 2.26 3.55 3.43 1.42 1.36 2.78 2.71 4.14 4.14 2.65 2.71 5.24 5.62 7.82 8.6 4.01 4.78 7.88 9.82 11.5 15.25 1.23 1.75 2.39 3.56 3.56 5.43 1.16 1.81 2.26 3.68 3.36 5.62 1.16 1.94 2.26 3.88 3.3 5.88 1.03 2 2.07 4.01 3.1 6.08 13.15 27.06 20.2 52.46 21.04 75.98z" fill="#f78d11"></path><g><g><path d="m219.58 121.71c-.26.06-6.27 1.29-12.73 2.65-7.63 1.62-15.9 3.36-15.9 3.36-11.76-1.55-20.1-4.2-38.97-12.8-12.47-5.69-23.98-22.36-35.1-39.04-8.47-12.6-21.33-29.67-33.16-40.65-.9-.84-1.94-1.75-3.04-2.59-7.88-6.26-19.58-12.33-30.31-13.5 25.53.39 90.87 8.21 143.93 70.06 8.48 9.83 16.94 20.75 25.28 32.51z" fill="#e47718"></path><path d="m206.85 124.36c-7.63 1.62-15.9 3.36-15.9 3.36-11.76-1.55-20.1-4.2-38.97-12.8-12.47-5.69-23.98-22.36-35.1-39.04-8.47-12.6-21.33-29.67-33.16-40.65-.9-.84-1.94-1.75-3.04-2.59 30.57 7.3 70.45 24.62 105.09 65.02 7.05 8.22 14.1 17.14 21.08 26.7z" fill="#f78d11"></path><g><path d="m190.92 127.73c-38.52 10.02-84.41 30.51-118.15 72-4.07 4.98-7.88 10.21-11.57 15.83-.06-13.83-1.81-28.05-3.62-42.85-.84-7.11-1.75-14.28-2.46-21.52-6.92-72.32-5.49-117.95-4.78-132.04 4.27.39 8.27 1.36 12.15 2.84 22.75 8.34 39.75 32.83 55.13 55 12.02 17.26 22.43 32.25 34.32 37.94 13.26 6.4 27.35 10.35 38.98 12.8z" fill="#fff"></path><path d="m190.92 127.73c-6.72 1.74-13.64 3.81-20.68 6.27-33.48 11.5-69.61 31.48-97.46 65.73-.71-8.85-1.81-17.84-2.91-27.02-.84-7.11-1.75-14.28-2.46-21.52-5.3-55.13-5.69-94.75-5.3-116.72.06-5.11.26-9.31.39-12.47 22.75 8.34 39.75 32.83 55.13 55 12.02 17.26 22.43 32.25 34.32 37.94 13.25 6.39 27.34 10.34 38.97 12.79z" fill="#f3ce9a"></path><path d="m170.24 134c-33.48 11.5-69.61 31.48-97.46 65.73-.71-8.85-1.81-17.84-2.91-27.02-.84-7.11-1.75-14.28-2.46-21.52-5.3-55.13-5.69-94.75-5.3-116.72 19.91 9.95 35.35 32.19 49.38 52.42 12.02 17.26 22.43 32.25 34.32 37.94 8.08 3.87 16.48 6.91 24.43 9.17z" fill="#feedd2"></path></g></g><g><path d="m297.71 121.71c.26.06 6.27 1.29 12.73 2.65 7.63 1.62 15.9 3.36 15.9 3.36 11.76-1.55 20.1-4.2 38.97-12.8 12.47-5.69 23.98-22.36 35.1-39.04 8.47-12.6 21.33-29.67 33.16-40.65.9-.84 1.94-1.75 3.04-2.59 7.88-6.27 19.58-12.34 30.31-13.51-25.53.39-90.87 8.21-143.93 70.06-8.47 9.84-16.94 20.76-25.28 32.52z" fill="#e47718"></path><path d="m310.45 124.36c7.63 1.62 15.9 3.36 15.9 3.36 11.76-1.55 20.1-4.2 38.97-12.8 12.47-5.69 23.98-22.36 35.1-39.04 8.47-12.6 21.33-29.67 33.16-40.65.9-.84 1.94-1.75 3.04-2.59-30.57 7.3-70.45 24.62-105.09 65.02-7.06 8.22-14.1 17.14-21.08 26.7z" fill="#f78d11"></path><g><path d="m326.37 127.73c38.52 10.02 84.41 30.51 118.15 72 4.07 4.98 7.88 10.21 11.57 15.83.06-13.83 1.81-28.05 3.62-42.85.84-7.11 1.75-14.28 2.46-21.52 6.92-72.32 5.49-117.95 4.78-132.04-4.27.39-8.27 1.36-12.15 2.84-22.75 8.34-39.75 32.83-55.13 55-12.02 17.26-22.43 32.25-34.32 37.94-13.25 6.4-27.34 10.35-38.98 12.8z" fill="#fff"></path><path d="m326.37 127.73c6.72 1.74 13.64 3.81 20.68 6.27 33.48 11.5 69.61 31.48 97.46 65.73.71-8.85 1.81-17.84 2.91-27.02.84-7.11 1.75-14.28 2.46-21.52 5.3-55.13 5.69-94.75 5.3-116.72-.06-5.11-.26-9.31-.39-12.47-22.75 8.34-39.75 32.83-55.13 55-12.02 17.26-22.43 32.25-34.32 37.94-13.24 6.39-27.33 10.34-38.97 12.79z" fill="#f3ce9a"></path><path d="m347.06 134c33.48 11.5 69.61 31.48 97.46 65.73.71-8.85 1.81-17.84 2.91-27.02.84-7.11 1.75-14.28 2.46-21.52 5.3-55.13 5.69-94.75 5.3-116.72-19.91 9.95-35.35 32.19-49.38 52.42-12.02 17.26-22.43 32.25-34.32 37.94-8.08 3.87-16.48 6.91-24.43 9.17z" fill="#feedd2"></path></g></g></g><g><path d="m463.4 379.93h.06c-.32.39-.58.78-.9 1.16-1.23 1.81-2.65 3.68-3.56 4.91l-.13-.06c-3.23 4.2-6.66 8.27-10.34 12.15l-7.24 7.04c-5.11 4.65-10.53 8.98-16.22 13.06l-9.24 6.33c-6.33 4.07-12.99 7.82-19.78 11.31l-11.89 5.75c-47.25 21.52-99.27 29.67-128.16 29.67-29.99 0-84.99-8.79-133.66-32.19l-11.76-6.01c-6.72-3.68-13.25-7.63-19.52-11.96l-9.05-6.53c-5.56-4.27-10.79-8.79-15.71-13.64l-7.05-7.37c-2.33-2.65-4.52-5.36-6.66-8.14l-.06.06c-1.03-1.36-2.46-3.36-3.68-5.11-.26-.39-.52-.71-.71-1.03-.32-.52-.65-.97-.9-1.36l6.4-4.78 45.82-34.13c9.05-6.79 20.88-10.73 31.99-12.67l112.59-19.13c8.08-1.36 16.29-1.36 24.37 0l110.84 18.87c11.12 1.87 23.78 5.62 32.83 12.34l46.15 34.58 6.53 4.91c-.39.55-.84 1.19-1.36 1.97z" fill="#f3ce9a"></path><path d="m458.23 373.08c-3.04 3.94-6.27 7.82-9.69 11.37l-7.24 7.04c-5.11 4.65-10.53 8.98-16.22 13.06l-9.24 6.33c-6.33 4.07-12.99 7.82-19.78 11.31l-11.89 5.75c-47.25 21.52-99.27 29.67-128.16 29.67-29.99 0-84.99-8.79-133.66-32.19l-11.76-6.01c-6.72-3.68-13.25-7.63-19.52-11.96l-9.05-6.53c-5.56-4.27-10.79-8.79-15.71-13.64l-7.05-7.37c-1.94-2.13-3.81-4.4-5.62-6.72l45.82-34.13c9.05-6.79 20.88-10.73 31.99-12.67l112.59-19.13c8.08-1.36 16.29-1.36 24.37 0l110.84 18.87c11.12 1.87 23.78 5.62 32.83 12.34z" fill="#feedd2"></path></g><path d="m463.47 231.17c-7.17-14.67-15.58-27.4-25.01-38.52-.13-.13-.26-.32-.39-.45s-.26-.19-.32-.32c-.19-.26-.39-.45-.65-.71-25.53-29.47-57.72-47.18-87.77-57.85-6.72-2.39-13.25-4.39-19.65-6.14h-.06c-.13-.06-.19-.06-.26-.06-6.2-1.68-12.22-3.04-17.9-4.14-4.52-.97-8.85-1.74-12.99-2.33-24.69-3.81-41.75-3.23-42.27-3.23h-3.1c-5.56 0-18.16.32-34.77 2.59-4.14.58-8.53 1.23-13.18 2.07-6.33 1.16-12.99 2.65-19.91 4.39-.26.06-.52.13-.71.19-6.27 1.62-12.67 3.55-19.26 5.82h-.06c-31.8 10.86-66.25 29.6-92.88 61.79-3.94 4.72-7.69 9.57-11.31 14.93v.13c-4.46 6.79-8.66 14.02-12.47 21.85-14.87 30.38-21.85 58.69-21.07 84.54.84-23.53 7.88-48.93 21.07-76.01 1.03-2.13 2.07-4.2 3.17-6.2 1.03-2 2.13-3.94 3.3-5.88 3.23-5.62 6.72-10.92 10.34-15.9.71-.97 1.42-1.94 2.13-2.84 6.72-8.92 14.02-16.8 21.72-23.85 1.1-1.03 2.2-2 3.3-2.97 12.28-10.79 25.46-19.52 38.91-26.56 1.1-.58 2.26-1.16 3.43-1.75 2.65-1.36 5.3-2.65 7.95-3.81 1.16-.58 2.33-1.1 3.56-1.62 2.2-.97 4.46-1.87 6.66-2.78 1.49-.58 2.97-1.16 4.39-1.74 11.5-4.33 22.75-7.63 33.35-10.15 3.94-.9 7.82-1.75 11.5-2.46 1.55-.32 3.04-.58 4.52-.84 4.39-.78 8.66-1.42 12.6-1.94 6.08-.84 11.5-1.36 16.29-1.75 1.62-.13 3.1-.19 4.52-.32h.06c.97-.06 1.87-.06 2.71-.13 4.39-.19 7.89-.26 10.15-.26h3.1c.19 0 3.3-.13 8.6.06 1.55 0 3.3.06 5.17.19 1.29.06 2.71.13 4.27.26 5.24.32 11.5.9 18.48 1.87.52.06.97.13 1.42.19 1.42.19 2.84.39 4.33.65 1.49.19 2.97.45 4.46.71 2.78.45 5.69.97 8.66 1.62.19 0 .45.06.65.13h.06c3.68.71 7.56 1.62 11.44 2.52 3.43.9 6.85 1.81 10.34 2.78 1.23.39 2.52.71 3.81 1.1 2.52.84 5.11 1.62 7.69 2.52 3.88 1.29 7.82 2.71 11.76 4.27 2.65 1.03 5.3 2.13 7.89 3.3 1.36.58 2.71 1.16 4.01 1.75 1.29.65 2.65 1.23 3.94 1.87 4.01 1.94 8.01 3.94 11.89 6.14 2.65 1.42 5.3 2.97 7.89 4.65 1.29.78 2.59 1.62 3.88 2.46 1.36.84 2.59 1.68 3.88 2.52 7.76 5.24 15.25 11.18 22.43 17.77 1.23 1.1 2.39 2.26 3.55 3.43 1.42 1.36 2.78 2.71 4.14 4.14 2.65 2.71 5.24 5.62 7.82 8.6 4.01 4.78 7.88 9.82 11.5 15.25 1.23 1.75 2.39 3.56 3.56 5.43 1.16 1.81 2.26 3.68 3.36 5.62 1.16 1.94 2.26 3.88 3.3 5.88 1.03 2 2.07 4.01 3.1 6.08 13.19 27.08 20.23 52.48 21.07 76.01.75-25.87-6.23-54.18-21.09-84.56z" fill="#feedd2"></path><g><g><g><path d="m323.73 134.16-23.2 21.97v18.74c0 2.65-2.2 4.85-4.85 4.85-2.71 0-4.85-2.2-4.85-4.85v-20.81c0-1.36.52-2.59 1.49-3.49l19.97-18.94c3.69.72 7.57 1.63 11.44 2.53z" fill="#e47718"></path></g><g><path d="m325.48 157.4v27.86c0 2.65-2.2 4.85-4.85 4.85-2.71 0-4.85-2.2-4.85-4.85v-27.86c0-2.71 2.13-4.85 4.85-4.85 2.65.01 4.85 2.14 4.85 4.85z" fill="#e47718"></path></g><g><path d="m224.14 154.07v20.81c0 2.65-2.13 4.85-4.85 4.85-2.65 0-4.85-2.2-4.85-4.85v-18.74l-23.72-22.49c3.94-.9 7.82-1.75 11.5-2.46l20.42 19.39c.98.9 1.5 2.13 1.5 3.49z" fill="#e47718"></path></g><g><path d="m199.19 157.4v27.86c0 2.65-2.2 4.85-4.85 4.85s-4.85-2.2-4.85-4.85v-27.86c0-2.71 2.2-4.85 4.85-4.85 2.65.01 4.85 2.14 4.85 4.85z" fill="#e47718"></path></g></g></g><g fill="#8b5e3c"><path d="m309.19 335.44c-.19.58-1.62 5.56-7.56 8.66-5.3 2.84-12.28 3.17-20.81 1.03v13.06c0 3.49-1.81 6.72-4.72 8.66l-14.54 9.37c-.19.13-.45.19-.71.32v14.15l40.33 35.29c2.07 1.81 2.26 4.85.45 6.85-.9 1.1-2.26 1.68-3.62 1.68-1.16 0-2.26-.39-3.17-1.23l-38.71-33.87-38.71 33.87c-.9.84-2.07 1.23-3.17 1.23-1.36 0-2.71-.58-3.68-1.68-1.74-2-1.55-5.04.45-6.85l40.14-35.09v-14.35c-.26-.13-.52-.19-.71-.32l-14.54-9.37c-2.91-1.94-4.72-5.17-4.72-8.66v-13.06c-8.53 2.13-15.51 1.81-20.81-1.03-5.95-3.1-7.37-8.08-7.56-8.66-.65-2.59.84-5.24 3.43-5.95.39-.13.84-.13 1.23-.13 2.2 0 4.2 1.36 4.72 3.55 0 0 .65 1.68 2.97 2.78 4.01 1.94 10.86 1.36 19.26-1.68 1.49-.52 3.17-.26 4.46.65 1.29.9 2 2.39 2 3.94v19.58l14.8 9.89 15.12-9.37.32-20.1c0-1.55.71-3.04 2-3.94s2.97-1.16 4.46-.65c8.4 3.04 15.25 3.62 19.26 1.68 2.39-1.16 2.97-2.84 3.04-2.91.84-2.46 3.49-3.88 6.01-3.17 2.45.79 3.94 3.31 3.29 5.83z"></path><g><path d="m201.29 259.84c-2.68 0-4.85 2.17-4.85 4.85 0 12.71-10.34 23.04-23.04 23.04s-23.04-10.34-23.04-23.04c0-2.68-2.17-4.85-4.85-4.85s-4.85 2.17-4.85 4.85c0 18.05 14.69 32.74 32.74 32.74s32.74-14.68 32.74-32.74c0-2.67-2.17-4.85-4.85-4.85z"></path><path d="m338.83 297.43c18.05 0 32.74-14.68 32.74-32.74 0-2.68-2.17-4.85-4.85-4.85s-4.85 2.17-4.85 4.85c0 12.71-10.34 23.04-23.04 23.04s-23.04-10.34-23.04-23.04c0-2.68-2.17-4.85-4.85-4.85s-4.85 2.17-4.85 4.85c0 18.05 14.69 32.74 32.74 32.74z"></path><path d="m203.89 206.53c-1.07-2.45-3.93-3.56-6.39-2.49l-61.98 27.23c-2.45 1.08-3.56 3.94-2.49 6.39.8 1.81 2.58 2.9 4.44 2.9.65 0 1.31-.13 1.95-.41l61.98-27.23c2.45-1.08 3.56-3.93 2.49-6.39z"></path><path d="m310.6 212.92 61.98 27.23c.63.28 1.3.41 1.95.41 1.87 0 3.64-1.08 4.44-2.9 1.08-2.45-.04-5.31-2.49-6.39l-61.98-27.23c-2.46-1.09-5.31.04-6.39 2.49-1.07 2.46.04 5.31 2.49 6.39z"></path></g></g></g><g><g><g><g><path d="m481.29 418.56c-1.22 0-2.44-.45-3.38-1.37-38.97-37.84-111.9-52.64-112.63-52.78-2.63-.52-4.34-3.07-3.82-5.7s3.09-4.32 5.7-3.82c3.11.62 76.5 15.52 117.5 55.34 1.92 1.87 1.97 4.94.1 6.85-.94.99-2.2 1.48-3.47 1.48z" fill="#8b5e3c"></path></g><g><path d="m478.75 452.61c-1.28 0-2.56-.5-3.52-1.51-37.07-39.07-107.59-57.59-108.29-57.77-2.59-.67-4.15-3.31-3.48-5.9s3.31-4.16 5.9-3.49c3 .77 73.89 19.38 112.91 60.49 1.84 1.94 1.76 5.01-.18 6.85-.94.88-2.14 1.33-3.34 1.33z" fill="#8b5e3c"></path></g><g><path d="m481.28 492.86c-1.54 0-3.06-.74-4-2.1-32.44-47.31-117.29-69.64-118.14-69.86-2.59-.67-4.15-3.31-3.48-5.9s3.3-4.14 5.9-3.49c3.63.93 89.22 23.44 123.72 73.76 1.51 2.21.95 5.23-1.26 6.74-.84.57-1.79.85-2.74.85z" fill="#8b5e3c"></path></g></g><g><g><path d="m30.71 418.56c-1.27 0-2.53-.49-3.48-1.47-1.87-1.92-1.82-4.99.1-6.85 41-39.82 114.4-54.73 117.5-55.34 2.62-.5 5.18 1.19 5.69 3.81.52 2.63-1.18 5.18-3.81 5.7-.73.15-73.7 14.98-112.63 52.78-.94.91-2.16 1.37-3.37 1.37z" fill="#8b5e3c"></path></g><g><path d="m33.25 452.61c-1.2 0-2.4-.44-3.34-1.33-1.94-1.84-2.02-4.91-.18-6.85 39.01-41.11 109.91-59.71 112.91-60.49 2.59-.68 5.24.89 5.9 3.49.67 2.59-.89 5.24-3.48 5.9-.71.18-71.22 18.7-108.29 57.77-.96 1-2.24 1.51-3.52 1.51z" fill="#8b5e3c"></path></g><g><path d="m30.72 492.86c-.95 0-1.9-.27-2.74-.85-2.21-1.51-2.77-4.53-1.26-6.74 34.5-50.32 120.09-72.83 123.72-73.76 2.59-.66 5.24.89 5.9 3.49.67 2.59-.89 5.24-3.48 5.9-.85.22-85.7 22.55-118.14 69.86-.94 1.36-2.46 2.1-4 2.1z" fill="#8b5e3c"></path></g></g></g></g><g><g><g><g><g><path d="m484.41 318.56c-.19 3.88-.52 7.69-1.1 11.44-21.72-17-61.98-48.02-78.33-56.16-2.39-1.23-3.36-4.14-2.2-6.53 1.23-2.39 4.14-3.36 6.53-2.2 16.09 8.07 52.48 35.74 75.1 53.45z" fill="#e47718"></path></g></g><g><g><path d="m480.21 344.34c-.06.45-.19.9-.32 1.36l-2.84 8.34-59.27-43.17c-2.13-1.62-2.65-4.65-1.03-6.79 1.55-2.2 4.59-2.65 6.79-1.1z" fill="#e47718"></path></g></g></g></g><g><g><g><g><path d="m107.02 273.83c-16.35 8.14-56.62 39.17-78.33 56.16-.58-3.75-.9-7.56-1.1-11.44 22.62-17.71 59.01-45.37 75.1-53.45 2.39-1.16 5.3-.19 6.53 2.2 1.17 2.39.2 5.3-2.2 6.53z" fill="#e47718"></path></g></g><g><g><path d="m94.23 310.86-59.27 43.17-2.84-8.34c-.13-.45-.26-.9-.32-1.36l56.68-41.36c2.2-1.55 5.24-1.1 6.79 1.1 1.61 2.14 1.09 5.18-1.04 6.79z" fill="#e47718"></path></g></g></g></g></g></g></svg>